<svg width="36" height="36" viewBox="0 0 36 36" fill="none" xmlns="http://www.w3.org/2000/svg">
<path d="M15.1655 27.2245H9.48047C8.86547 27.2245 8.35547 26.7145 8.35547 26.0995V18.4195C8.35547 16.8595 9.63045 15.5844 11.1905 15.5844H15.1655C15.7805 15.5844 16.2905 16.0944 16.2905 16.7094V26.0844C16.2905 26.7144 15.7805 27.2245 15.1655 27.2245ZM10.6055 24.9745H14.0404V17.8495H11.1905C10.8755 17.8495 10.6055 18.1044 10.6055 18.4344V24.9745Z" fill="#292D32"/>
<path d="M20.8344 27.2245H15.1494C14.5344 27.2245 14.0244 26.7145 14.0244 26.0995V11.6094C14.0244 10.0494 15.2994 8.77441 16.8594 8.77441H19.1394C20.6994 8.77441 21.9744 10.0494 21.9744 11.6094V26.0995C21.9594 26.7145 21.4644 27.2245 20.8344 27.2245ZM16.2894 24.9745H19.7244V11.6094C19.7244 11.2944 19.4694 11.0244 19.1394 11.0244H16.8594C16.5444 11.0244 16.2744 11.2794 16.2744 11.6094V24.9745H16.2894Z" fill="#292D32"/>
<path d="M26.5209 27.2246H20.8359C20.2209 27.2246 19.7109 26.7146 19.7109 26.0996V19.2744C19.7109 18.6594 20.2209 18.1494 20.8359 18.1494H24.8109C26.3709 18.1494 27.6459 19.4244 27.6459 20.9844V26.0996C27.6459 26.7146 27.1509 27.2246 26.5209 27.2246ZM21.9609 24.9746H25.3959V20.9844C25.3959 20.6694 25.1409 20.3994 24.8109 20.3994H21.9609V24.9746Z" fill="#292D32"/>
<path d="M22.5 34.125H13.5C5.355 34.125 1.875 30.645 1.875 22.5V13.5C1.875 5.355 5.355 1.875 13.5 1.875H22.5C30.645 1.875 34.125 5.355 34.125 13.5V22.5C34.125 30.645 30.645 34.125 22.5 34.125ZM13.5 4.125C6.585 4.125 4.125 6.585 4.125 13.5V22.5C4.125 29.415 6.585 31.875 13.5 31.875H22.5C29.415 31.875 31.875 29.415 31.875 22.5V13.5C31.875 6.585 29.415 4.125 22.5 4.125H13.5Z" fill="#292D32"/>
</svg>
