<svg width="36" height="36" viewBox="0 0 36 36" fill="none" xmlns="http://www.w3.org/2000/svg">
<path d="M20.25 13.875H3C2.385 13.875 1.875 13.365 1.875 12.75C1.875 12.135 2.385 11.625 3 11.625H20.25C20.865 11.625 21.375 12.135 21.375 12.75C21.375 13.365 20.865 13.875 20.25 13.875Z" fill="black"/>
<path d="M12 25.875H9C8.385 25.875 7.875 25.365 7.875 24.75C7.875 24.135 8.385 23.625 9 23.625H12C12.615 23.625 13.125 24.135 13.125 24.75C13.125 25.365 12.615 25.875 12 25.875Z" fill="black"/>
<path d="M21.75 25.875H15.75C15.135 25.875 14.625 25.365 14.625 24.75C14.625 24.135 15.135 23.625 15.75 23.625H21.75C22.365 23.625 22.875 24.135 22.875 24.75C22.875 25.365 22.365 25.875 21.75 25.875Z" fill="black"/>
<path d="M26.34 31.875H9.66C3.69 31.875 1.875 30.075 1.875 24.165V11.835C1.875 5.925 3.69 4.125 9.66 4.125H20.25C20.865 4.125 21.375 4.635 21.375 5.25C21.375 5.865 20.865 6.375 20.25 6.375H9.66C4.95 6.375 4.125 7.185 4.125 11.835V24.15C4.125 28.8 4.95 29.61 9.66 29.61H26.325C31.035 29.61 31.86 28.8 31.86 24.15V16.53C31.86 15.915 32.37 15.405 32.985 15.405C33.6 15.405 34.11 15.915 34.11 16.53V24.15C34.125 30.075 32.31 31.875 26.34 31.875Z" fill="black"/>
<path d="M26.9992 12.3756C26.7142 12.3756 26.4292 12.2706 26.2042 12.0456L23.9542 9.79564C23.5192 9.36064 23.5192 8.64064 23.9542 8.20564C24.3892 7.77064 25.1092 7.77064 25.5442 8.20564L26.9992 9.66064L32.2042 4.45564C32.6392 4.02064 33.3592 4.02064 33.7942 4.45564C34.2292 4.89064 34.2292 5.61064 33.7942 6.04564L27.7942 12.0456C27.5692 12.2706 27.2842 12.3756 26.9992 12.3756Z" fill="black"/>
</svg>
